<svg xmlns="http://www.w3.org/2000/svg" width="178" height="35" viewBox="0 0 178 35">
    <g fill="#FF4757" fill-rule="evenodd">
        <path fill-rule="nonzero" d="M133.168 33.884V.93h8.953v25.255h11.13v7.698h-20.083zm24.459 0V.93h8.953v25.255h11.13v7.698h-20.083zM44.507 1.34l18.452 32.083H52.567l-8.06-13.956-8.018 13.956H26.054L44.507 1.341zm29.13 32.083L55.183 1.341h10.393l8.06 13.957L81.653 1.34h10.435L73.636 33.424zM4.344 23.237c1.331 1.516 2.644 2.649 3.938 3.399s2.584 1.126 3.87 1.126c1.198 0 2.18-.323 2.951-.968.77-.645 1.156-1.463 1.156-2.454 0-1.095-.334-1.939-.999-2.532-.666-.592-2.173-1.204-4.522-1.834-3.216-.87-5.49-2.003-6.821-3.399-1.332-1.395-1.997-3.308-1.997-5.74 0-3.15 1.05-5.72 3.153-7.708C7.175 1.139 9.9.145 13.252.145c1.81 0 3.527.244 5.15.731a16.66 16.66 0 0 1 4.612 2.217l-2.805 6.46c-1.018-.87-2.062-1.526-3.13-1.97-1.07-.441-2.129-.663-3.176-.663-1.077 0-1.952.259-2.625.776-.673.518-1.01 1.182-1.01 1.992 0 .826.296 1.486.887 1.981.59.495 1.731.968 3.422 1.418l.404.113c3.65.99 6.05 2.079 7.203 3.264.777.81 1.369 1.782 1.773 2.915.404 1.133.605 2.39.605 3.77 0 3.497-1.144 6.306-3.433 8.43-2.288 2.123-5.34 3.185-9.155 3.185-2.289 0-4.372-.391-6.25-1.17-1.877-.78-3.683-2.004-5.418-3.67l4.039-6.687z"/>
        <path d="M92.44 17.43c0-2.357.439-4.573 1.313-6.652.876-2.078 2.158-3.935 3.85-5.57a17.18 17.18 0 0 1 5.665-3.748 17.642 17.642 0 0 1 6.731-1.316v.045h.012c2.333 0 4.58.438 6.742 1.317a17.37 17.37 0 0 1 5.711 3.747 16.945 16.945 0 0 1 3.781 5.56c.876 2.085 1.313 4.306 1.313 6.662 0 2.371-.434 4.592-1.3 6.663-.869 2.07-2.133 3.924-3.793 5.56a17.899 17.899 0 0 1-5.745 3.747 17.62 17.62 0 0 1-6.71 1.317c-2.348 0-4.596-.44-6.742-1.317a17.18 17.18 0 0 1-5.666-3.748c-1.69-1.635-2.973-3.496-3.849-5.582-.874-2.086-1.312-4.3-1.312-6.64v-.046zm11.467-6.94l-.056.063c-1.623 1.839-2.434 4.145-2.434 6.922 0 2.82.8 5.14 2.4 6.955 1.601 1.816 3.666 2.723 6.194 2.723 2.483 0 4.536-.915 6.16-2.746 1.622-1.83 2.434-4.141 2.434-6.932 0-2.761-.823-5.065-2.469-6.91-1.645-1.846-3.687-2.77-6.125-2.77-.203 0-.402.007-.6.02-2.2.145-4.036 1.099-5.504 2.676zM92.44 17.43h8.975c0-2.777.863-5.179 2.464-6.911l.027-.028c1.481-1.648 3.316-2.54 5.505-2.677.193-.013.389-.02.587-.02V.19a17.64 17.64 0 0 0-6.731 1.317 17.167 17.167 0 0 0-5.666 3.747c-1.69 1.635-2.973 3.492-3.849 5.57-.87 2.066-1.307 4.268-1.312 6.606z"/>
    </g>
</svg>
